<svg width="102" height="56" viewBox="0 0 102 56" fill="none" xmlns="http://www.w3.org/2000/svg">
<path d="M27.8731 13.8726C28.0451 13.1396 28.873 9.83056 29.699 11.5286C29.673 11.5016 31.916 14.6045 30.356 22.8215C30.382 22.7345 29.1841 26.2705 28.4311 23.9315C28.4571 24.0185 27.872 22.3826 27.872 22.3826C27.872 22.3826 27.455 21.9745 27.408 22.8215C27.386 22.7635 29.044 32.9755 31.185 28.3505C31.185 28.3815 32.357 26.8015 32.57 21.2415C32.642 21.2985 33.155 13.0746 31.741 8.83557C31.741 8.86657 30.426 4.32853 28.892 7.07953C28.1292 8.44419 27.687 9.96465 27.599 11.5256C27.4913 12.3027 27.4266 13.0853 27.4051 13.8696C27.3941 13.8426 27.7031 14.6076 27.8731 13.8726Z" fill="white"/>
<path d="M37.4371 12.8025C37.6371 11.8735 38.579 7.67755 39.528 9.83055C39.498 9.79755 42.0671 13.7305 40.2811 24.1515C40.3101 24.0455 38.943 28.5195 38.081 25.5585C38.11 25.6655 37.4421 23.5945 37.4421 23.5945C37.4421 23.5945 36.965 23.0766 36.909 24.1506C36.884 24.0786 38.7831 37.0256 41.2341 31.1606C41.2341 31.1996 42.5761 29.1965 42.8241 22.1465C42.9071 22.2185 43.4931 11.7925 41.8751 6.41752C41.8751 6.45752 40.369 0.70351 38.612 4.19151C37.73 5.94602 37.2259 7.86607 37.132 9.82756C37.0084 10.8136 36.9343 11.8051 36.91 12.7986C36.885 12.7626 37.2351 13.7315 37.4371 12.8025Z" fill="white"/>
<path d="M44.8077 5.95058C44.8077 5.95058 45.8007 -0.350209 48.8849 0.10243C48.4456 0.0888952 50.7588 -0.389495 52.6185 7.93109C53.52 12.7033 53.7306 17.5804 53.2438 22.4126C53.167 22.3068 53.0231 28.2582 50.8392 31.9278C50.8397 31.9588 48.3374 36.0199 45.8798 29.7748C45.6111 29.1307 45.3772 28.4726 45.1792 27.8034C45.1792 27.8034 47.6096 30.3315 48.7407 27.7429C48.7603 27.7785 50.5178 24.6122 50.5888 18.3811C50.6061 18.4568 50.6993 8.40879 48.2763 5.42854C48.0061 5.26874 47.7058 5.16618 47.3943 5.12721C47.0828 5.08824 46.7665 5.11369 46.4652 5.20199C46.1639 5.2903 45.884 5.43956 45.6427 5.64053C45.4015 5.84151 45.2041 6.0899 45.0629 6.3703C44.9708 6.23481 44.8856 6.09472 44.8077 5.95058Z" fill="white"/>
<path d="M61.4812 26.4106C61.4812 26.4106 58.5182 25.3786 59.1372 21.0776C59.1732 20.7776 60.3972 17.4086 64.8142 18.9986C64.7072 18.9986 67.1142 15.7845 70.1882 15.8195C70.2132 15.8195 73.7112 15.6066 74.8972 19.9046C74.8322 19.9666 79.4032 16.1756 82.8132 21.3526C82.8232 21.3676 82.8222 23.6776 82.8132 23.0986V24.3586C82.8132 24.3586 82.6391 26.3646 79.4311 26.4096H79.2412C77.4952 26.3806 61.4812 26.4106 61.4812 26.4106Z" fill="white"/>
<path d="M54.089 26.2875C54.053 26.3105 59.2379 26.2875 59.2379 26.2875C58.3003 25.3883 57.6986 24.1953 57.5328 22.9067C57.3671 21.6182 57.6475 20.3118 58.327 19.2045C58.392 19.1395 59.863 16.2325 64.098 17.4245C64.079 17.3375 67.113 13.7755 70.348 14.0815C71.5082 14.0542 72.6452 14.4085 73.5846 15.0899C74.524 15.7713 75.2137 16.7422 75.548 17.8535C75.464 17.7885 79.533 14.9535 82.848 19.4535C82.891 19.4755 81.996 12.4615 74.921 14.0795C74.213 12.6838 73.1183 11.5212 71.7677 10.7304C70.4171 9.93961 68.8675 9.55398 67.3038 9.61952C64.9024 9.97732 62.7404 11.2717 61.2909 13.2195C61.3789 13.1545 57.2309 12.1765 55.0829 14.4035C55.1553 16.7772 55.0483 19.153 54.7628 21.5105C54.7908 21.4505 54.13 26.2645 54.089 26.2875Z" fill="white"/>
<path d="M53.3289 5.72354C54.188 8.01414 54.7018 10.4198 54.8531 12.8615C55.5926 12.1265 56.514 11.6011 57.5232 11.339C58.5324 11.0768 59.5932 11.0874 60.597 11.3696C60.697 11.3696 68.1429 2.74855 75.6609 12.2845C75.7459 12.3165 81.347 11.1126 82.951 16.5316C82.882 16.5316 84.016 6.89356 71.083 6.68356C71.046 6.75656 66.2159 -2.47943 56.9939 4.96857C56.3658 4.80781 55.7092 4.7925 55.0742 4.92386C54.4393 5.05522 53.8429 5.32977 53.3301 5.72656L53.3289 5.72354Z" fill="white"/>
<path d="M43.6891 8.5495C44.9167 7.77383 46.3229 7.32622 47.7731 7.24951C49.5847 13.3142 49.6732 19.7634 48.0289 25.8755C48.0549 25.9485 43.8861 25.8755 43.8861 25.8755C43.8861 25.8755 44.9991 17.0325 43.8861 10.0755L43.6891 8.5495Z" fill="white"/>
<path d="M33.881 14.3376L37.3329 14.0756C37.7007 13.1523 38.2065 12.2901 38.8329 11.5186C38.8549 11.5186 41.0539 16.1646 38.8329 24.4816C38.4199 24.1636 38.0746 23.7664 37.817 23.3133C37.5594 22.8601 37.3948 22.3601 37.3329 21.8426C37.3329 21.7796 33.733 21.8426 33.733 21.8426L33.8839 20.5815C33.8839 20.5815 37.0129 20.9596 36.8019 19.9106C36.7829 19.8886 36.987 18.9435 34.047 19.3055V18.1725C34.047 18.1725 36.9631 18.8116 36.9701 17.3116C36.9701 17.2896 37.111 15.6876 34.047 16.3046C34.0253 15.6465 33.9699 14.99 33.881 14.3376Z" fill="white"/>
<path d="M5.31207 16.3785L29.335 14.5886C29.5303 15.1312 29.6252 15.7049 29.6151 16.2816C29.6351 16.3106 5.31207 16.3785 5.31207 16.3785Z" fill="white"/>
<path d="M8.3011 19.4876L29.596 18.4156C29.611 18.7445 29.5508 19.0724 29.42 19.3746C29.407 19.4086 8.3011 19.4876 8.3011 19.4876Z" fill="white"/>
<path d="M14.582 21.8126L29.382 20.8345L29.1201 21.9165L14.582 21.8126Z" fill="white"/>
<path d="M14.542 52.1365C13.7982 53.0491 12.8582 53.7823 11.792 54.2815C10.6799 54.7847 9.4705 55.0363 8.25 55.0185C7.13008 55.0285 6.01976 54.8114 4.986 54.3805C4.01133 53.9763 3.1248 53.386 2.376 52.6425C1.63289 51.8946 1.04257 51.0091 0.638 50.0355C0.208145 49.0081 -0.00889562 47.9042 4.64206e-08 46.7905C-0.00889562 45.6769 0.208145 44.5729 0.638 43.5455C1.04257 42.5719 1.63289 41.6864 2.376 40.9385C3.1248 40.1951 4.01133 39.6048 4.986 39.2005C6.02004 38.771 7.13036 38.5554 8.25 38.5665C9.39564 38.5431 10.5327 38.7683 11.583 39.2265C12.5607 39.6783 13.4336 40.3288 14.146 41.1365L12.056 43.1605C11.6029 42.63 11.0545 42.1891 10.439 41.8605C9.7675 41.5234 9.02316 41.3571 8.272 41.3765C7.56441 41.3717 6.86245 41.5024 6.204 41.7615C5.57534 42.0074 5.00287 42.3778 4.521 42.8505C4.03335 43.3357 3.64807 43.9137 3.388 44.5505C3.10134 45.2596 2.95923 46.0188 2.97 46.7835C2.95766 47.5505 3.09911 48.3122 3.386 49.0235C3.64606 49.6603 4.03135 50.2384 4.519 50.7235C5.00101 51.1983 5.5742 51.5704 6.204 51.8175C6.86245 52.0767 7.56441 52.2074 8.272 52.2025C9.08517 52.219 9.88988 52.0349 10.615 51.6665C11.3195 51.2883 11.9377 50.7676 12.43 50.1375L14.542 52.1365ZM15.906 54.6665V38.9145H18.786V54.6665H15.906ZM25.806 43.5345C26.5934 43.5252 27.3749 43.671 28.106 43.9635C28.7792 44.2355 29.3913 44.6394 29.906 45.1515C30.4214 45.67 30.8266 46.2874 31.097 46.9665C31.3888 47.7013 31.5345 48.486 31.526 49.2765C31.5345 50.0671 31.3888 50.8517 31.097 51.5865C30.8274 52.2655 30.4233 52.8828 29.909 53.4015C29.3943 53.9137 28.7822 54.3176 28.109 54.5895C27.3779 54.8821 26.5964 55.0278 25.809 55.0185C25.0216 55.0278 24.2401 54.8821 23.509 54.5895C22.8358 54.3176 22.2237 53.9137 21.709 53.4015C21.1925 52.8834 20.7863 52.266 20.515 51.5865C20.2232 50.8517 20.0775 50.0671 20.086 49.2765C20.0775 48.486 20.2232 47.7013 20.515 46.9665C20.7845 46.2876 21.1887 45.6702 21.703 45.1515C22.2177 44.6394 22.8298 44.2355 23.503 43.9635C24.235 43.6706 25.0176 43.5248 25.806 43.5345ZM25.806 52.3565C26.1719 52.3567 26.5342 52.2857 26.873 52.1475C27.2148 52.0113 27.5254 51.8072 27.786 51.5475C28.0584 51.2707 28.2717 50.9413 28.413 50.5795C28.5732 50.1652 28.6516 49.7237 28.644 49.2795C28.6516 48.8354 28.5732 48.3939 28.413 47.9795C28.2717 47.6177 28.0584 47.2884 27.786 47.0115C27.5258 46.7501 27.2152 46.5442 26.873 46.4065C26.5343 46.268 26.1719 46.1967 25.806 46.1965C25.4364 46.1944 25.07 46.2654 24.728 46.4055C24.3908 46.5455 24.0849 46.7511 23.828 47.0105C23.5556 47.2874 23.3423 47.6167 23.201 47.9785C23.0408 48.3929 22.9624 48.8344 22.97 49.2785C22.9624 49.7227 23.0408 50.1642 23.201 50.5785C23.3423 50.9403 23.5556 51.2697 23.828 51.5465C24.0853 51.8041 24.3912 52.0081 24.728 52.1465C25.0699 52.287 25.4363 52.3584 25.806 52.3565ZM40.282 53.2565H40.106C39.7713 53.7977 39.3012 54.242 38.742 54.5455C38.1412 54.8678 37.4677 55.0307 36.786 55.0185C36.2153 55.0626 35.6422 54.9723 35.1127 54.7549C34.5832 54.5374 34.1121 54.1989 33.737 53.7665C33.0288 52.8001 32.6756 51.6191 32.737 50.4225V43.8865H35.619V50.0665C35.5687 50.6867 35.7532 51.3031 36.136 51.7935C36.3328 51.9889 36.569 52.14 36.8289 52.2368C37.0888 52.3335 37.3664 52.3737 37.643 52.3545C38.0065 52.3626 38.3659 52.2761 38.686 52.1035C38.9882 51.9335 39.2507 51.701 39.456 51.4215C39.6778 51.1166 39.8419 50.7736 39.94 50.4095C40.0525 50.0049 40.1084 49.5865 40.106 49.1665V43.8865H42.986V54.6665H40.286L40.282 53.2565ZM52.932 53.3665H52.756C52.4553 53.8575 52.0303 54.2604 51.524 54.5345C50.8896 54.876 50.176 55.043 49.456 55.0185C48.7759 55.0208 48.1036 54.8744 47.486 54.5895C46.864 54.3045 46.3036 53.901 45.836 53.4015C45.3464 52.8743 44.9621 52.2582 44.704 51.5865C44.4194 50.85 44.2775 50.0661 44.286 49.2765C44.2775 48.487 44.4194 47.703 44.704 46.9665C44.9624 46.2948 45.347 45.6787 45.837 45.1515C46.3046 44.6533 46.8646 44.2508 47.486 43.9665C48.1033 43.6819 48.7753 43.5354 49.455 43.5375C50.175 43.513 50.8886 43.6801 51.523 44.0215C52.029 44.2941 52.4543 44.6953 52.756 45.1845H52.932L52.756 43.6445V38.9145H55.638V54.6665H52.932V53.3665ZM50.05 52.3565C50.4231 52.3581 50.793 52.2871 51.139 52.1475C51.4808 52.0113 51.7914 51.8072 52.052 51.5475C52.3254 51.2693 52.5421 50.9405 52.69 50.5795C52.8576 50.167 52.9399 49.7248 52.932 49.2795C52.9399 48.8343 52.8576 48.3921 52.69 47.9795C52.5421 47.6185 52.3254 47.2898 52.052 47.0115C51.7918 46.7501 51.4812 46.5442 51.139 46.4065C50.793 46.2669 50.4231 46.196 50.05 46.1975C49.6758 46.1961 49.3053 46.271 48.961 46.4175C48.6197 46.5619 48.3097 46.7711 48.048 47.0335C47.7746 47.3118 47.5579 47.6405 47.41 48.0015C47.2441 48.4062 47.1618 48.8402 47.168 49.2775C47.1618 49.7148 47.2441 50.1489 47.41 50.5535C47.5579 50.9145 47.7746 51.2433 48.048 51.5215C48.3097 51.7839 48.6197 51.9931 48.961 52.1375C49.3054 52.2838 49.6759 52.3583 50.05 52.3565ZM58.014 38.9145H68.002V41.7305H60.986V45.5585H67.3V48.3745H60.986V54.6665H58.016L58.014 38.9145ZM76.516 53.2585H76.34C76.0051 53.7989 75.5349 54.2425 74.976 54.5455C74.3746 54.8682 73.7004 55.031 73.018 55.0185C72.4476 55.0623 71.8749 54.9718 71.3458 54.7544C70.8167 54.537 70.3459 54.1987 69.971 53.7665C69.2628 52.8001 68.9096 51.6191 68.971 50.4225V43.8865H71.853V50.0665C71.8027 50.6867 71.9872 51.3031 72.37 51.7935C72.5668 51.9889 72.803 52.14 73.0629 52.2368C73.3228 52.3335 73.6004 52.3737 73.877 52.3545C74.2414 52.3623 74.6015 52.2751 74.922 52.1015C75.2242 51.9315 75.4867 51.699 75.692 51.4195C75.9138 51.1146 76.0778 50.7716 76.176 50.4075C76.2876 50.0034 76.3428 49.5858 76.34 49.1665V43.8865H79.222V54.6665H76.516V53.2585ZM81.048 52.2905L86.548 46.3505H81.224V43.8865H90.086V46.2665L84.586 52.2065H90.174V54.6665H81.044L81.048 52.2905ZM101.662 52.0705C101.177 52.9365 100.485 53.6694 99.649 54.2045C98.7196 54.7704 97.6455 55.0533 96.558 55.0185C95.7782 55.0264 95.0045 54.8807 94.281 54.5895C93.6019 54.3149 92.9847 53.9069 92.466 53.3895C91.9487 52.8708 91.5406 52.2537 91.266 51.5745C90.9735 50.8434 90.8277 50.0619 90.837 49.2745C90.8339 48.5185 90.9762 47.7689 91.256 47.0665C91.5229 46.3882 91.9189 45.7681 92.422 45.2405C92.9265 44.7157 93.5279 44.2936 94.193 43.9975C94.9029 43.6837 95.6719 43.5262 96.448 43.5355C97.239 43.5214 98.0248 43.6674 98.758 43.9645C99.4037 44.2302 99.9823 44.6359 100.452 45.1525C100.915 45.6732 101.267 46.283 101.486 46.9445C101.726 47.668 101.845 48.4263 101.838 49.1885V49.4525C101.824 49.5325 101.817 49.6134 101.816 49.6945C101.801 49.7743 101.793 49.8553 101.794 49.9365H93.676C93.7213 50.3334 93.8447 50.7175 94.039 51.0665C94.2136 51.3717 94.4451 51.6406 94.721 51.8585C94.9859 52.0679 95.2883 52.2247 95.612 52.3205C95.9334 52.4157 96.2668 52.4638 96.602 52.4635C97.1818 52.4863 97.7544 52.3287 98.241 52.0125C98.6661 51.7203 99.0165 51.3322 99.264 50.8795L101.662 52.0705ZM99.044 47.8905C99.0204 47.6684 98.957 47.4523 98.857 47.2525C98.7374 47.0048 98.5734 46.781 98.373 46.5925C98.1429 46.376 97.8742 46.2043 97.581 46.0865C97.2203 45.9456 96.8352 45.8776 96.448 45.8865C95.8618 45.8769 95.289 46.0626 94.82 46.4145C94.3381 46.7848 93.9905 47.3024 93.83 47.8885L99.044 47.8905Z" fill="white"/>
</svg>
